<?xml version="1.0" encoding="utf-8"?>
<!-- Generator: Adobe Illustrator 16.0.0, SVG Export Plug-In . SVG Version: 6.00 Build 0)  -->
<!DOCTYPE svg PUBLIC "-//W3C//DTD SVG 1.1 Basic//EN" "http://www.w3.org/Graphics/SVG/1.1/DTD/svg11-basic.dtd">
<svg version="1.1" baseProfile="basic" id="Слой_1"
	 xmlns="http://www.w3.org/2000/svg" xmlns:xlink="http://www.w3.org/1999/xlink" x="0px" y="0px" width="300px" height="144px"
	 viewBox="0 0 300 144" xml:space="preserve">
<g>
	<path fill-rule="evenodd" clip-rule="evenodd" fill="#CDCECF" d="M118.903,76.052l15.868-16.086
		c2.587-2.621,3.61-7.947,2.273-11.833l-10.469-30.456c-1.335-3.887-4.543-4.923-7.129-2.302L103.574,31.46
		c-2.583,2.62-3.604,7.946-2.271,11.833l10.468,30.457C113.108,77.639,116.315,78.671,118.903,76.052L118.903,76.052z
		 M174.591,75.284l11.076-11.229c1.805-1.83,2.514-5.544,1.583-8.258l-7.307-21.257c-0.934-2.714-3.174-3.438-4.976-1.608
		L163.886,44.16c-1.799,1.828-2.514,5.546-1.585,8.257l7.31,21.261C170.541,76.39,172.781,77.112,174.591,75.284L174.591,75.284z"/>
	<path fill="#ED1C24" d="M8.45,115.01c2.394-0.784,4.939-0.612,7.42-0.629c4.318,0.009,8.636-0.025,12.952,0.014
		c0.001,1.425,0.001,2.848,0,4.271c-5.027,0.003-10.056-0.003-15.082,0.003c-1.668-0.006-3.452,0.328-4.734,1.472
		c-1.306,1.162-1.888,2.905-2.15,4.59c-0.34,2.263-0.34,4.582-0.041,6.85c0.243,1.749,0.781,3.575,2.119,4.807
		c1.232,1.166,2.991,1.532,4.639,1.538c5.084,0.015,10.168,0,15.25,0.008c0.001,1.426,0.001,2.855,0,4.282
		c-5.188,0.004-10.378-0.004-15.57,0.004c-1.691-0.008-3.408-0.145-5.02-0.701c-2.235-0.723-4.174-2.303-5.298-4.372
		c-1.486-2.675-1.91-5.814-1.846-8.839c-0.065-3.023,0.362-6.162,1.852-8.84C4.096,117.328,6.127,115.706,8.45,115.01L8.45,115.01z
		 M279.523,114.764c1.97-0.477,4.002-0.369,6.009-0.383c4.479,0.014,8.956-0.028,13.433,0.017c0.047,1.422,0.047,2.849,0,4.269
		c-4.856,0.003-9.717,0.003-14.57,0c-1.341-0.017-2.719,0.064-3.961,0.604c-1.125,0.479-2.059,1.375-2.621,2.456
		c-0.727,1.369-0.977,2.924-1.111,4.454c7.367,0,14.74-0.008,22.11,0c0,1.33,0.006,2.661,0,3.988
		c-7.37-0.005-14.735,0.026-22.097-0.014c0.097,1.696,0.35,3.443,1.205,4.938c0.608,1.067,1.597,1.912,2.753,2.34
		c1.444,0.562,3.014,0.492,4.538,0.492c4.584,0.008,9.163,0,13.754,0.008c0.047,1.426,0.047,2.855,0,4.282
		c-4.751,0.004-9.502-0.004-14.248,0.004c-1.779,0.009-3.589,0.022-5.333-0.411c-1.807-0.435-3.537-1.321-4.834-2.678
		c-1.785-1.867-2.691-4.403-3.068-6.923c-0.379-2.531-0.386-5.123-0.02-7.662c0.363-2.524,1.238-5.075,3.003-6.977
		C275.806,116.131,277.612,115.18,279.523,114.764L279.523,114.764z M249.415,114.764c1.97-0.477,4.008-0.369,6.009-0.383
		c4.484,0.009,8.968-0.025,13.452,0.014c0,1.425,0,2.848,0,4.271c-4.87,0.003-9.729,0.003-14.591,0
		c-1.494-0.017-3.047,0.105-4.364,0.858c-1.276,0.694-2.117,1.977-2.565,3.324c-0.461,1.402-0.622,2.88-0.688,4.352
		c-0.056,2.024,0.008,4.086,0.534,6.054c0.361,1.354,1.076,2.675,2.232,3.509c1.249,0.916,2.846,1.162,4.352,1.162
		c5.03,0.008,10.053,0,15.09,0.008c0,1.426,0,2.855,0,4.282c-4.87,0.004-9.729-0.004-14.591,0.004
		c-1.717,0.009-3.462-0.008-5.131-0.441c-1.771-0.442-3.451-1.324-4.713-2.647c-1.779-1.867-2.691-4.403-3.068-6.923
		c-0.379-2.531-0.386-5.123-0.02-7.662c0.361-2.527,1.245-5.075,3.009-6.977C245.697,116.131,247.502,115.18,249.415,114.764
		L249.415,114.764z M209.794,114.395c4.573-0.042,9.149,0,13.729-0.014c2.319,0.02,4.686-0.131,6.971,0.413
		c2.318,0.51,4.538,1.755,5.907,3.738c1.617,2.313,2.085,5.212,2.085,7.976c0.008,5.236,0.008,10.475,0,15.711
		c-6.187-0.008-12.377,0-18.563-0.004c-2.173-0.018-4.393-0.148-6.444-0.92c-1.218-0.459-2.361-1.219-3.096-2.303
		c-0.981-1.389-1.256-3.133-1.283-4.795c-0.027-1.744,0.227-3.57,1.149-5.082c0.771-1.26,2.019-2.169,3.383-2.675
		c2.004-0.759,4.17-0.92,6.291-0.92c4.336,0,8.666,0,13.003,0c-0.072-1.755-0.394-3.653-1.618-5.001
		c-1.254-1.379-3.208-1.796-4.996-1.843c-5.515-0.024-11.018,0-16.517-0.011C209.794,117.242,209.794,115.819,209.794,114.395
		L209.794,114.395z M215.703,130.469L215.703,130.469c-0.979,0.814-1.104,2.203-1.07,3.393c0.007,1.17,0.267,2.483,1.27,3.224
		c1.016,0.718,2.313,0.782,3.516,0.84c4.504,0.021,9.003-0.014,13.507,0.015c0-2.777,0.008-5.559,0-8.336
		c-4.498-0.006-8.995-0.011-13.493,0.003C218.162,129.643,216.765,129.668,215.703,130.469L215.703,130.469z M178.661,114.395
		c5.08-0.039,10.166-0.005,15.244-0.014c2.221,0.02,4.46-0.104,6.667,0.279c1.898,0.305,3.848,1.007,5.164,2.477
		c1.338,1.468,1.807,3.503,1.926,5.438c0.08,1.94-0.014,3.955-0.796,5.761c-0.596,1.382-1.685,2.538-3.021,3.209
		c-2.104,1.073-4.513,1.278-6.83,1.306c-4.272,0.014-8.555-0.003-12.82,0.011c-0.008,3.116-0.014,6.234,0,9.348
		c-1.851,0.024-3.694,0.007-5.534,0.007C178.661,132.946,178.654,123.669,178.661,114.395L178.661,114.395z M184.188,118.666
		L184.188,118.666c-0.012,3.293,0.021,6.598-0.02,9.891c4.334,0.024,8.671,0.008,13.008,0.011c1.337-0.041,2.839-0.172,3.831-1.176
		c0.968-1.014,1.06-2.505,1.073-3.831c-0.006-1.344-0.167-2.877-1.214-3.841c-1.14-0.992-2.753-1.037-4.181-1.054
		C192.524,118.666,188.354,118.669,184.188,118.666L184.188,118.666z M150.324,115.16c2.106-0.76,4.385-0.801,6.597-0.779
		c5.983,0.017,11.975-0.036,17.958,0.027c-0.008,1.414,0,2.831,0,4.255c-6.425,0.02-12.851-0.008-19.267,0.009
		c-1.099,0.024-2.307,0.147-3.151,0.914c-0.826,0.749-0.981,1.949-0.953,3.003c0.014,0.978,0.279,2.053,1.088,2.686
		c0.896,0.701,2.093,0.782,3.184,0.81c3.688,0.021,7.37-0.009,11.054,0.017c2.405,0.059,5.012,0.442,6.868,2.111
		c1.591,1.412,2.143,3.604,2.2,5.657c0.04,1.963-0.246,4.101-1.57,5.644c-1.211,1.437-3.089,2.093-4.891,2.412
		c-2.134,0.372-4.307,0.283-6.464,0.29c-5.466,0-10.921,0.004-16.387,0c-0.004-1.427-0.004-2.856,0-4.282
		c6.5-0.008,13.003,0.007,19.502-0.008c1.17-0.014,2.459-0.188,3.3-1.073c0.849-0.923,0.969-2.264,0.87-3.455
		c-0.086-0.93-0.477-1.908-1.325-2.38c-0.947-0.581-2.104-0.605-3.18-0.637c-3.328,0-6.657,0-9.984,0
		c-2.48-0.003-5.147-0.208-7.214-1.727c-1.607-1.167-2.405-3.141-2.566-5.072c-0.15-1.943-0.05-4.017,0.952-5.74
		C147.675,116.555,148.942,115.646,150.324,115.16L150.324,115.16z M111.006,114.794c2.065-0.523,4.209-0.399,6.317-0.413
		c4.428,0.009,8.853-0.025,13.279,0.014c0.003,1.425,0.003,2.848,0,4.271c-4.917,0.003-9.831,0.003-14.752,0
		c-1.85-0.038-3.881,0.246-5.279,1.577c-1.626,1.511-2.063,3.819-2.241,5.938c7.369,0,14.738-0.008,22.107,0
		c-0.001,1.33,0.006,2.661-0.003,3.988c-7.366-0.005-14.732,0.026-22.1-0.014c0.132,2.099,0.493,4.377,1.984,5.974
		c1.231,1.331,3.114,1.782,4.87,1.796c5.135,0.015,10.277,0,15.414,0.008c0.003,1.426,0.003,2.855,0,4.282
		c-4.806,0.004-9.617-0.004-14.423,0.004c-1.941,0.014-3.926,0.003-5.795-0.585c-2.262-0.641-4.286-2.135-5.484-4.166
		c-1.681-2.791-2.076-6.129-2.08-9.324c0.031-3.276,0.518-6.717,2.401-9.488C106.553,116.679,108.694,115.32,111.006,114.794
		L111.006,114.794z M68.376,114.395c5.296-0.039,10.597-0.005,15.893-0.014c1.86,0.02,3.724-0.063,5.579,0.081
		c2.683,0.232,5.403,1.279,7.179,3.373c2.13,2.476,2.846,5.824,3.015,9.009c0.127,3.42-0.121,7.004-1.744,10.09
		c-1.096,2.117-3.033,3.772-5.294,4.531c-1.643,0.585-3.4,0.754-5.135,0.754c-6.497-0.008-12.996,0-19.494-0.004
		C68.375,132.941,68.369,123.669,68.376,114.395L68.376,114.395z M73.896,118.666L73.896,118.666c0,6.42,0,12.847,0,19.273
		c4.059-0.015,8.118-0.007,12.172-0.015c1.708,0.021,3.521,0.056,5.068-0.793c1.361-0.715,2.269-2.073,2.69-3.522
		c0.733-2.397,0.696-4.95,0.574-7.429c-0.173-2.009-0.554-4.177-1.962-5.719c-1.228-1.349-3.13-1.779-4.889-1.79
		C82.998,118.663,78.449,118.677,73.896,118.666L73.896,118.666z M42.946,114.522c1.655-0.187,3.329-0.136,4.998-0.142
		c2.385,0.017,4.795-0.107,7.15,0.372c2.965,0.526,5.86,1.994,7.675,4.456c2.105,2.819,2.691,6.473,2.57,9.912
		c-0.099,3.332-1.033,6.811-3.404,9.256c-2.268,2.378-5.563,3.473-8.774,3.739c-1.791,0.152-3.587,0.085-5.382,0.099
		c-2.253,0.01-4.533,0.048-6.747-0.445c-2.888-0.585-5.689-2.09-7.412-4.535c-2.003-2.777-2.563-6.327-2.452-9.679
		c0.082-3.21,0.93-6.544,3.093-8.995C36.426,116.063,39.719,114.835,42.946,114.522L42.946,114.522z M44.254,118.614L44.254,118.614
		c-2.163,0.227-4.363,1.146-5.681,2.945c-1.59,2.151-1.901,4.956-1.801,7.559c0.09,2.412,0.712,4.984,2.49,6.728
		c1.674,1.649,4.1,2.229,6.389,2.275c1.803,0.006,3.605,0.03,5.406-0.019c2.329-0.111,4.797-0.779,6.42-2.554
		c1.726-1.845,2.24-4.471,2.273-6.92c0.034-2.097-0.224-4.275-1.24-6.143c-0.837-1.536-2.273-2.717-3.919-3.288
		c-1.804-0.68-3.763-0.715-5.666-0.696C47.367,118.521,45.803,118.437,44.254,118.614L44.254,118.614z"/>
	<path fill-rule="evenodd" clip-rule="evenodd" fill="#F68C1F" d="M127.929,34.229l9.819-9.502c1.6-1.549,5.565-2.857,8.813-2.896
		l17.506-0.208c3.246-0.039,4.59,1.185,2.993,2.734l-9.823,9.503c-1.597,1.548-5.561,2.856-8.811,2.896l-17.502,0.207
		C127.678,37.001,126.329,35.781,127.929,34.229L127.929,34.229z M131.127,87.168l15.072-14.584
		c2.456-2.376,8.543-4.388,13.527-4.445l26.864-0.319c4.99-0.06,7.056,1.82,4.604,4.197l-15.078,14.585
		c-2.451,2.378-8.537,4.39-13.527,4.443l-26.864,0.321C130.741,91.426,128.671,89.548,131.127,87.168L131.127,87.168z"/>
	<path fill-rule="evenodd" clip-rule="evenodd" fill="#ED1C24" d="M199.235,52.984l-38.664,0.144
		c-5.322,0.019-11.171-4.312-12.998-9.626L136.36,10.874c-1.827-5.315,1.032-9.68,6.354-9.7l38.663-0.144
		c5.325-0.019,11.175,4.313,12.997,9.628l11.215,32.629C207.416,48.602,204.561,52.966,199.235,52.984L199.235,52.984z
		 M149.073,83.46l-17.814,0.064c-2.453,0.011-5.146-1.986-5.986-4.436l-5.167-15.029c-0.841-2.447,0.478-4.458,2.927-4.467
		l17.813-0.067c2.448-0.008,5.145,1.986,5.986,4.435l5.166,15.033C152.838,81.438,151.521,83.449,149.073,83.46L149.073,83.46z"/>
	<path fill-rule="evenodd" clip-rule="evenodd" fill="#F16023" d="M133.197,36.937l-2.014-5.855l-3.255,3.148
		c-1.6,1.551-0.251,2.772,2.995,2.734L133.197,36.937L133.197,36.937z M174.591,75.284l7.307-7.409l-14.223,0.17l1.936,5.633
		C170.541,76.39,172.781,77.112,174.591,75.284L174.591,75.284z"/>
	<path fill-rule="evenodd" clip-rule="evenodd" fill="#A32025" d="M145.268,36.796l-4.714-13.725
		c1.805-0.728,4.039-1.219,6.006-1.241l17.506-0.208c3.246-0.039,4.59,1.185,2.993,2.734l-9.823,9.503
		c-1.597,1.548-5.561,2.856-8.811,2.896L145.268,36.796L145.268,36.796z M186.303,53.033l-23.755,0.089l-0.247-0.705
		c-0.929-2.71-0.214-6.429,1.585-8.257l11.082-11.229c1.802-1.828,4.042-1.106,4.976,1.608L186.303,53.033L186.303,53.033z
		 M149.073,83.46l-14.164,0.052l11.29-10.928c0.712-0.69,1.727-1.345,2.935-1.933l2.863,8.342
		C152.838,81.438,151.521,83.449,149.073,83.46L149.073,83.46z M122.852,72.048l11.919-12.083c0.135-0.133,0.259-0.273,0.38-0.419
		l-12.116,0.046c-2.453,0.009-3.771,2.02-2.93,4.467L122.852,72.048L122.852,72.048z"/>
</g>
</svg>
